<svg width="12" height="12" viewBox="0 0 12 12" fill="none" xmlns="http://www.w3.org/2000/svg">
<g clip-path="url(#clip0_8_85)">
<path d="M8.5 1H3.5C2.11929 1 1 2.11929 1 3.5V8.5C1 9.88071 2.11929 11 3.5 11H8.5C9.88071 11 11 9.88071 11 8.5V3.5C11 2.11929 9.88071 1 8.5 1Z" stroke="#C9C9C9" stroke-linecap="round" stroke-linejoin="round"/>
<path d="M7.99998 5.68491C8.06168 6.10103 7.9906 6.52601 7.79685 6.89941C7.6031 7.27281 7.29655 7.57561 6.92079 7.76474C6.54503 7.95387 6.1192 8.0197 5.70387 7.95287C5.28854 7.88604 4.90486 7.68995 4.60739 7.39249C4.30993 7.09503 4.11384 6.71134 4.04701 6.29601C3.98018 5.88068 4.04601 5.45485 4.23514 5.07909C4.42427 4.70333 4.72707 4.39678 5.10047 4.20303C5.47387 4.00928 5.89885 3.9382 6.31498 3.99991C6.73944 4.06285 7.1324 4.26064 7.43582 4.56406C7.73924 4.86748 7.93703 5.26045 7.99998 5.68491Z" stroke="#C9C9C9" stroke-linecap="round" stroke-linejoin="round"/>
<path d="M8.75 3.25H8.755" stroke="#C9C9C9" stroke-linecap="round" stroke-linejoin="round"/>
</g>
<defs>
<clipPath id="clip0_8_85">
<rect width="12" height="12" fill="white"/>
</clipPath>
</defs>
</svg>
