<svg width="12" height="12" viewBox="0 0 12 12" fill="none" xmlns="http://www.w3.org/2000/svg">
<path d="M11.5 1.4999C11.0212 1.83764 10.4911 2.09596 9.93 2.2649C9.62887 1.91866 9.22867 1.67325 8.78352 1.56186C8.33837 1.45048 7.86975 1.4785 7.44104 1.64213C7.01233 1.80576 6.64422 2.0971 6.38649 2.47676C6.12876 2.85642 5.99385 3.30607 6 3.7649V4.2649C5.12132 4.28768 4.25064 4.09281 3.4655 3.69762C2.68037 3.30244 2.00516 2.71922 1.5 1.9999C1.5 1.9999 -0.5 6.4999 4 8.4999C2.97026 9.19888 1.74358 9.54936 0.5 9.4999C5 11.9999 10.5 9.4999 10.5 3.7499C10.4995 3.61063 10.4861 3.4717 10.46 3.3349C10.9703 2.83165 11.3304 2.19626 11.5 1.4999Z" stroke="#C9C9C9" stroke-linecap="round" stroke-linejoin="round"/>
</svg>
