<svg width="41" height="40" viewBox="0 0 41 40" fill="none" xmlns="http://www.w3.org/2000/svg">
<path d="M17.425 24.6217L17.41 24.5867C17.1847 24.5251 16.9612 24.4567 16.74 24.3817L16.7233 24.375C14.4209 23.5873 12.4225 22.0993 11.0077 20.1194C9.59294 18.1395 8.83267 15.7668 8.83334 13.3333C8.8326 10.3469 9.97718 7.4738 12.0313 5.30594C14.0855 3.13809 16.8928 1.84053 19.8749 1.68053C22.8571 1.52052 25.7872 2.51026 28.0615 4.44587C30.3358 6.38149 31.7812 9.11558 32.1 12.085C32.1733 12.7717 31.6067 13.3333 30.9167 13.3333C30.2267 13.3333 29.675 12.77 29.5833 12.0867C29.3617 10.4738 28.7145 8.94902 27.7084 7.66908C26.7022 6.38914 25.3734 5.4002 23.8585 4.80388C22.3436 4.20757 20.6973 4.0254 19.0886 4.27609C17.48 4.52678 15.9671 5.2013 14.7055 6.23031C13.4439 7.25933 12.479 8.60572 11.9101 10.1311C11.3412 11.6565 11.1887 13.3059 11.4683 14.9098C11.7479 16.5136 12.4496 18.0141 13.5011 19.257C14.5527 20.4998 15.9163 21.4403 17.4517 21.9817C17.761 21.2825 18.3012 20.711 18.9818 20.3628C19.6624 20.0146 20.442 19.9109 21.1899 20.0691C21.9378 20.2273 22.6086 20.6379 23.0899 21.2318C23.5712 21.8258 23.8337 22.5672 23.8333 23.3317C23.8333 24.3283 23.3967 25.2217 22.705 25.8317C22.0963 26.3693 21.3122 26.6663 20.5 26.6667C19.8425 26.669 19.1991 26.4758 18.6516 26.1117C18.104 25.7476 17.6771 25.229 17.425 24.6217ZM13.8283 25.8333C12.5999 25.1769 11.4751 24.343 10.49 23.3583C9.57691 23.4646 8.73463 23.9025 8.12318 24.5889C7.51174 25.2753 7.17372 26.1624 7.17334 27.0817V28.045C7.17334 29.5317 7.70334 30.9717 8.67001 32.1033C11.28 35.16 15.2567 36.67 20.5 36.67C25.7433 36.67 29.7217 35.16 32.3367 32.1033C33.3056 30.9712 33.8382 29.5302 33.8383 28.04V27.0817C33.8383 26.0877 33.4437 25.1344 32.7412 24.4312C32.0386 23.728 31.0857 23.3326 30.0917 23.3317H26.3333C26.3333 24.2283 26.1333 25.075 25.7717 25.8317H30.0917C30.4226 25.8326 30.7397 25.9646 30.9734 26.199C31.2071 26.4333 31.3383 26.7507 31.3383 27.0817V28.04C31.3386 28.9341 31.0194 29.7988 30.4383 30.4783C28.3433 32.925 25.065 34.1683 20.5 34.1683C15.935 34.1683 12.66 32.925 10.5717 30.48C9.99096 29.8009 9.6718 28.9368 9.67167 28.0433V27.0817C9.67167 26.7502 9.80337 26.4322 10.0378 26.1978C10.2722 25.9634 10.5902 25.8317 10.9217 25.8317L13.8283 25.8333ZM13.8333 13.3333C13.8336 12.1834 14.1314 11.0531 14.6976 10.0523C15.2639 9.05146 16.0794 8.2141 17.0649 7.62159C18.0504 7.02907 19.1724 6.70154 20.3219 6.67082C21.4714 6.6401 22.6093 6.90723 23.6251 7.44626C24.6408 7.98529 25.4999 8.7779 26.1188 9.74706C26.7377 10.7162 27.0953 11.829 27.1571 12.9773C27.2188 14.1255 26.9825 15.2702 26.471 16.3001C25.9596 17.3301 25.1905 18.2102 24.2383 18.855C23.1894 17.9795 21.8664 17.4999 20.5 17.5C21.6051 17.5 22.6649 17.061 23.4463 16.2796C24.2277 15.4982 24.6667 14.4384 24.6667 13.3333C24.6667 12.2283 24.2277 11.1685 23.4463 10.3871C22.6649 9.60566 21.6051 9.16667 20.5 9.16667C19.3949 9.16667 18.3351 9.60566 17.5537 10.3871C16.7723 11.1685 16.3333 12.2283 16.3333 13.3333C16.3333 14.4384 16.7723 15.4982 17.5537 16.2796C18.3351 17.061 19.3949 17.5 20.5 17.5C19.0767 17.5 17.7733 18.01 16.7633 18.855C15.8598 18.2453 15.12 17.4228 14.6091 16.4599C14.0982 15.497 13.8318 14.4234 13.8333 13.3333Z" fill="#4CAF7A"/>
</svg>
