<svg width="87" height="15" viewBox="0 0 87 15" fill="none" xmlns="http://www.w3.org/2000/svg">
<g clip-path="url(#clip0_8_136)">
<path d="M6.65018 3.58807C4.72847 3.58807 3.1026 4.84721 2.55005 6.5831C3.37154 6.16746 4.29817 5.9352 5.28102 5.9352H7.43255C7.64771 5.9352 7.82374 6.11123 7.82374 6.32638C7.82374 6.54153 7.64771 6.71757 7.43255 6.71757H5.28102C4.87517 6.71757 4.48154 6.76402 4.10013 6.84959C3.4669 6.99384 2.88011 7.25056 2.35446 7.60018C0.936404 8.54637 0 10.1625 0 11.9986V12.3898C0 12.715 0.261606 12.9766 0.586781 12.9766C0.911955 12.9766 1.17356 12.715 1.17356 12.3898V11.9986C1.17356 10.8079 1.67966 9.73704 2.48893 8.98645C2.97302 10.8324 4.65268 12.1942 6.65018 12.1942H6.67463C9.90437 12.1771 12.518 8.99379 12.518 5.06969C12.518 4.02816 12.3346 3.03797 12.0021 2.14557C11.9385 1.97687 11.6916 1.98421 11.606 2.14313C11.1464 3.00374 10.2369 3.58807 9.1929 3.58807H6.65018Z" fill="#878787"/>
</g>
<path d="M21.9772 9.66809H19.1932L18.7325 11H17.2604L19.774 3.99994H21.4063L23.9199 11H22.4378L21.9772 9.66809ZM21.5966 8.54647L20.5852 5.62227L19.5737 8.54647H21.5966ZM26.2615 6.25318C26.4418 5.99948 26.6888 5.78918 27.0026 5.62227C27.323 5.44869 27.6869 5.3619 28.0941 5.3619C28.5682 5.3619 28.9954 5.47873 29.376 5.7124C29.7632 5.94607 30.067 6.27988 30.2873 6.71384C30.5143 7.14112 30.6278 7.6385 30.6278 8.20599C30.6278 8.77347 30.5143 9.27753 30.2873 9.71816C30.067 10.1521 29.7632 10.4893 29.376 10.7296C28.9954 10.97 28.5682 11.0901 28.0941 11.0901C27.6869 11.0901 27.3264 11.0067 27.0126 10.8398C26.7055 10.6729 26.4551 10.4626 26.2615 10.2089V13.6438H24.8595V5.45203H26.2615V6.25318ZM29.1957 8.20599C29.1957 7.87217 29.1256 7.58509 28.9854 7.34475C28.8519 7.09773 28.6716 6.91079 28.4446 6.78394C28.2243 6.65709 27.984 6.59367 27.7236 6.59367C27.4699 6.59367 27.2296 6.66043 27.0026 6.79396C26.7823 6.92081 26.602 7.10774 26.4618 7.35476C26.3283 7.60178 26.2615 7.8922 26.2615 8.22601C26.2615 8.55983 26.3283 8.85024 26.4618 9.09727C26.602 9.34429 26.7823 9.53456 27.0026 9.66809C27.2296 9.79494 27.4699 9.85836 27.7236 9.85836C27.984 9.85836 28.2243 9.7916 28.4446 9.65807C28.6716 9.52455 28.8519 9.33427 28.9854 9.08725C29.1256 8.84023 29.1957 8.54647 29.1957 8.20599ZM33.0486 6.25318C33.2289 5.99948 33.4759 5.78918 33.7897 5.62227C34.1101 5.44869 34.474 5.3619 34.8812 5.3619C35.3553 5.3619 35.7825 5.47873 36.1631 5.7124C36.5503 5.94607 36.8541 6.27988 37.0744 6.71384C37.3014 7.14112 37.4149 7.6385 37.4149 8.20599C37.4149 8.77347 37.3014 9.27753 37.0744 9.71816C36.8541 10.1521 36.5503 10.4893 36.1631 10.7296C35.7825 10.97 35.3553 11.0901 34.8812 11.0901C34.474 11.0901 34.1135 11.0067 33.7997 10.8398C33.4926 10.6729 33.2422 10.4626 33.0486 10.2089V13.6438H31.6466V5.45203H33.0486V6.25318ZM35.9828 8.20599C35.9828 7.87217 35.9127 7.58509 35.7725 7.34475C35.639 7.09773 35.4587 6.91079 35.2317 6.78394C35.0114 6.65709 34.7711 6.59367 34.5107 6.59367C34.257 6.59367 34.0167 6.66043 33.7897 6.79396C33.5694 6.92081 33.3891 7.10774 33.2489 7.35476C33.1154 7.60178 33.0486 7.8922 33.0486 8.22601C33.0486 8.55983 33.1154 8.85024 33.2489 9.09727C33.3891 9.34429 33.5694 9.53456 33.7897 9.66809C34.0167 9.79494 34.257 9.85836 34.5107 9.85836C34.7711 9.85836 35.0114 9.7916 35.2317 9.65807C35.4587 9.52455 35.639 9.33427 35.7725 9.08725C35.9127 8.84023 35.9828 8.54647 35.9828 8.20599ZM39.8357 3.58935V11H38.4337V3.58935H39.8357ZM46.3783 8.10584C46.3783 8.30613 46.365 8.48639 46.3382 8.64662H42.2824C42.3158 9.04719 42.456 9.36098 42.703 9.58797C42.95 9.81496 43.2538 9.92846 43.6143 9.92846C44.1351 9.92846 44.5056 9.70481 44.7259 9.2575H46.2381C46.0779 9.7916 45.7708 10.2322 45.3168 10.5794C44.8628 10.9199 44.3053 11.0901 43.6444 11.0901C43.1103 11.0901 42.6296 10.9733 42.2023 10.7396C41.7817 10.4993 41.4512 10.1621 41.2109 9.72817C40.9772 9.29422 40.8604 8.7935 40.8604 8.22601C40.8604 7.65186 40.9772 7.1478 41.2109 6.71384C41.4445 6.27988 41.7717 5.94607 42.1923 5.7124C42.6129 5.47873 43.0969 5.3619 43.6444 5.3619C44.1718 5.3619 44.6425 5.4754 45.0564 5.70239C45.477 5.92938 45.8008 6.25318 46.0278 6.67378C46.2615 7.08771 46.3783 7.56506 46.3783 8.10584ZM44.9262 7.70527C44.9195 7.34475 44.7894 7.05767 44.5357 6.84403C44.282 6.62371 43.9715 6.51355 43.6043 6.51355C43.2572 6.51355 42.9634 6.62037 42.7231 6.83401C42.4894 7.04098 42.3458 7.3314 42.2924 7.70527H44.9262ZM53.3802 11H51.9782L48.8037 6.20311V11H47.4017V3.99994H48.8037L51.9782 8.80685V3.99994H53.3802V11ZM60.0033 5.45203V11H58.5912V10.299C58.411 10.5393 58.174 10.7296 57.8802 10.8698C57.5931 11.0033 57.2794 11.0701 56.9389 11.0701C56.5049 11.0701 56.121 10.98 55.7872 10.7997C55.4534 10.6128 55.1897 10.3424 54.9961 9.98855C54.8091 9.62803 54.7157 9.20075 54.7157 8.7067V5.45203H56.1177V8.50642C56.1177 8.94705 56.2278 9.28754 56.4482 9.52788C56.6685 9.76155 56.9689 9.87839 57.3495 9.87839C57.7367 9.87839 58.0405 9.76155 58.2608 9.52788C58.4811 9.28754 58.5912 8.94705 58.5912 8.50642V5.45203H60.0033ZM62.7886 6.31327C62.9689 6.01951 63.2025 5.78918 63.4896 5.62227C63.7834 5.45537 64.1172 5.37191 64.491 5.37191V6.84403H64.1205C63.6799 6.84403 63.3461 6.94751 63.1191 7.15447C62.8988 7.36144 62.7886 7.72196 62.7886 8.23603V11H61.3866V5.45203H62.7886V6.31327ZM67.5584 11.0901C67.1044 11.0901 66.6972 11.01 66.3367 10.8498C65.9762 10.6829 65.6891 10.4592 65.4754 10.1788C65.2685 9.89842 65.155 9.58797 65.1349 9.24748H66.547C66.5737 9.46112 66.6772 9.63804 66.8574 9.77824C67.0444 9.91845 67.2747 9.98855 67.5484 9.98855C67.8155 9.98855 68.0224 9.93514 68.1693 9.82832C68.3229 9.7215 68.3996 9.58463 68.3996 9.41773C68.3996 9.23747 68.3062 9.10394 68.1192 9.01715C67.939 8.92368 67.6486 8.82354 67.248 8.71672C66.8341 8.61658 66.4936 8.51309 66.2265 8.40627C65.9661 8.29945 65.7391 8.13588 65.5455 7.91557C65.3586 7.69525 65.2651 7.39816 65.2651 7.02429C65.2651 6.71718 65.3519 6.43678 65.5255 6.18308C65.7058 5.92938 65.9595 5.72909 66.2866 5.58222C66.6204 5.43534 67.011 5.3619 67.4583 5.3619C68.1192 5.3619 68.6467 5.52881 69.0406 5.86262C69.4345 6.18975 69.6514 6.63373 69.6915 7.19453H68.3496C68.3295 6.97422 68.2361 6.80063 68.0692 6.67378C67.9089 6.54026 67.6919 6.4735 67.4182 6.4735C67.1645 6.4735 66.9676 6.52023 66.8274 6.6137C66.6938 6.70716 66.6271 6.83735 66.6271 7.00426C66.6271 7.19119 66.7206 7.33473 66.9075 7.43488C67.0944 7.52835 67.3848 7.62515 67.7787 7.72529C68.1793 7.82544 68.5098 7.92892 68.7702 8.03574C69.0305 8.14256 69.2542 8.30947 69.4411 8.53646C69.6347 8.75678 69.7349 9.05053 69.7416 9.41773C69.7416 9.73819 69.6514 10.0253 69.4712 10.279C69.2976 10.5327 69.0439 10.7329 68.7101 10.8798C68.3829 11.02 67.9991 11.0901 67.5584 11.0901ZM76.0498 8.10584C76.0498 8.30613 76.0365 8.48639 76.0098 8.64662H71.954C71.9873 9.04719 72.1275 9.36098 72.3746 9.58797C72.6216 9.81496 72.9254 9.92846 73.2859 9.92846C73.8066 9.92846 74.1772 9.70481 74.3975 9.2575H75.9096C75.7494 9.7916 75.4423 10.2322 74.9883 10.5794C74.5343 10.9199 73.9769 11.0901 73.3159 11.0901C72.7818 11.0901 72.3011 10.9733 71.8738 10.7396C71.4532 10.4993 71.1228 10.1621 70.8824 9.72817C70.6488 9.29422 70.5319 8.7935 70.5319 8.22601C70.5319 7.65186 70.6488 7.1478 70.8824 6.71384C71.1161 6.27988 71.4432 5.94607 71.8638 5.7124C72.2844 5.47873 72.7685 5.3619 73.3159 5.3619C73.8433 5.3619 74.314 5.4754 74.7279 5.70239C75.1486 5.92938 75.4723 6.25318 75.6993 6.67378C75.933 7.08771 76.0498 7.56506 76.0498 8.10584ZM74.5978 7.70527C74.5911 7.34475 74.4609 7.05767 74.2072 6.84403C73.9535 6.62371 73.6431 6.51355 73.2759 6.51355C72.9287 6.51355 72.6349 6.62037 72.3946 6.83401C72.1609 7.04098 72.0174 7.3314 71.964 7.70527H74.5978ZM78.4752 6.31327C78.6555 6.01951 78.8891 5.78918 79.1762 5.62227C79.47 5.45537 79.8038 5.37191 80.1777 5.37191V6.84403H79.8071C79.3665 6.84403 79.0327 6.94751 78.8057 7.15447C78.5854 7.36144 78.4752 7.72196 78.4752 8.23603V11H77.0732V5.45203H78.4752V6.31327ZM86.4296 5.45203L82.9947 13.6238H81.5025L82.7043 10.8598L80.4811 5.45203H82.0533L83.4854 9.3276L84.9375 5.45203H86.4296Z" fill="#878787"/>
<defs>
<clipPath id="clip0_8_136">
<rect width="12.518" height="12.518" fill="white" transform="translate(0 1.24097)"/>
</clipPath>
</defs>
</svg>
