<svg width="139" height="24" viewBox="0 0 139 24" fill="none" xmlns="http://www.w3.org/2000/svg">
<path d="M10.625 5.75001C7.55469 5.75001 4.95703 7.76173 4.07422 10.5352C5.38672 9.8711 6.86719 9.50001 8.4375 9.50001H11.875C12.2188 9.50001 12.5 9.78126 12.5 10.125C12.5 10.4688 12.2188 10.75 11.875 10.75H8.4375C7.78906 10.75 7.16016 10.8242 6.55078 10.9609C5.53906 11.1914 4.60156 11.6016 3.76172 12.1602C1.49609 13.6719 0 16.2539 0 19.1875V19.8125C0 20.332 0.417969 20.75 0.9375 20.75C1.45703 20.75 1.875 20.332 1.875 19.8125V19.1875C1.875 17.2852 2.68359 15.5742 3.97656 14.375C4.75 17.3242 7.43359 19.5 10.625 19.5H10.6641C15.8242 19.4727 20 14.3867 20 8.1172C20 6.45314 19.707 4.8711 19.1758 3.44532C19.0742 3.17579 18.6797 3.18751 18.543 3.44142C17.8086 4.81642 16.3555 5.75001 14.6875 5.75001H10.625Z" fill="white"/>
<path d="M34.952 15.872H30.504L29.768 18H27.416L31.432 6.816H34.04L38.056 18H35.688L34.952 15.872ZM34.344 14.08L32.728 9.408L31.112 14.08H34.344ZM41.7971 10.416C42.0851 10.0107 42.4798 9.67467 42.9811 9.408C43.4931 9.13067 44.0745 8.992 44.7251 8.992C45.4825 8.992 46.1651 9.17867 46.7731 9.552C47.3918 9.92533 47.8771 10.4587 48.2291 11.152C48.5918 11.8347 48.7731 12.6293 48.7731 13.536C48.7731 14.4427 48.5918 15.248 48.2291 15.952C47.8771 16.6453 47.3918 17.184 46.7731 17.568C46.1651 17.952 45.4825 18.144 44.7251 18.144C44.0745 18.144 43.4985 18.0107 42.9971 17.744C42.5065 17.4773 42.1065 17.1413 41.7971 16.736V22.224H39.5571V9.136H41.7971V10.416ZM46.4851 13.536C46.4851 13.0027 46.3731 12.544 46.1491 12.16C45.9358 11.7653 45.6478 11.4667 45.2851 11.264C44.9331 11.0613 44.5491 10.96 44.1331 10.96C43.7278 10.96 43.3438 11.0667 42.9811 11.28C42.6291 11.4827 42.3411 11.7813 42.1171 12.176C41.9038 12.5707 41.7971 13.0347 41.7971 13.568C41.7971 14.1013 41.9038 14.5653 42.1171 14.96C42.3411 15.3547 42.6291 15.6587 42.9811 15.872C43.3438 16.0747 43.7278 16.176 44.1331 16.176C44.5491 16.176 44.9331 16.0693 45.2851 15.856C45.6478 15.6427 45.9358 15.3387 46.1491 14.944C46.3731 14.5493 46.4851 14.08 46.4851 13.536ZM52.6409 10.416C52.9289 10.0107 53.3235 9.67467 53.8249 9.408C54.3369 9.13067 54.9182 8.992 55.5689 8.992C56.3262 8.992 57.0089 9.17867 57.6169 9.552C58.2355 9.92533 58.7209 10.4587 59.0729 11.152C59.4355 11.8347 59.6169 12.6293 59.6169 13.536C59.6169 14.4427 59.4355 15.248 59.0729 15.952C58.7209 16.6453 58.2355 17.184 57.6169 17.568C57.0089 17.952 56.3262 18.144 55.5689 18.144C54.9182 18.144 54.3422 18.0107 53.8409 17.744C53.3502 17.4773 52.9502 17.1413 52.6409 16.736V22.224H50.4009V9.136H52.6409V10.416ZM57.3289 13.536C57.3289 13.0027 57.2169 12.544 56.9929 12.16C56.7795 11.7653 56.4915 11.4667 56.1289 11.264C55.7769 11.0613 55.3929 10.96 54.9769 10.96C54.5715 10.96 54.1875 11.0667 53.8249 11.28C53.4729 11.4827 53.1849 11.7813 52.9609 12.176C52.7475 12.5707 52.6409 13.0347 52.6409 13.568C52.6409 14.1013 52.7475 14.5653 52.9609 14.96C53.1849 15.3547 53.4729 15.6587 53.8249 15.872C54.1875 16.0747 54.5715 16.176 54.9769 16.176C55.3929 16.176 55.7769 16.0693 56.1289 15.856C56.4915 15.6427 56.7795 15.3387 56.9929 14.944C57.2169 14.5493 57.3289 14.08 57.3289 13.536ZM63.4846 6.16V18H61.2446V6.16H63.4846ZM73.9378 13.376C73.9378 13.696 73.9164 13.984 73.8738 14.24H67.3938C67.4471 14.88 67.6711 15.3813 68.0658 15.744C68.4604 16.1067 68.9458 16.288 69.5218 16.288C70.3538 16.288 70.9458 15.9307 71.2978 15.216H73.7138C73.4578 16.0693 72.9671 16.7733 72.2418 17.328C71.5164 17.872 70.6258 18.144 69.5698 18.144C68.7164 18.144 67.9484 17.9573 67.2658 17.584C66.5938 17.2 66.0658 16.6613 65.6818 15.968C65.3084 15.2747 65.1217 14.4747 65.1217 13.568C65.1217 12.6507 65.3084 11.8453 65.6818 11.152C66.0551 10.4587 66.5778 9.92533 67.2498 9.552C67.9218 9.17867 68.6951 8.992 69.5698 8.992C70.4124 8.992 71.1644 9.17333 71.8258 9.536C72.4978 9.89867 73.0151 10.416 73.3778 11.088C73.7511 11.7493 73.9378 12.512 73.9378 13.376ZM71.6178 12.736C71.6071 12.16 71.3991 11.7013 70.9938 11.36C70.5884 11.008 70.0924 10.832 69.5058 10.832C68.9511 10.832 68.4818 11.0027 68.0978 11.344C67.7244 11.6747 67.4951 12.1387 67.4098 12.736H71.6178ZM85.1248 18H82.8848L77.8128 10.336V18H75.5728V6.816H77.8128L82.8848 14.496V6.816H85.1248V18ZM95.7064 9.136V18H93.4504V16.88C93.1624 17.264 92.7837 17.568 92.3144 17.792C91.8557 18.0053 91.3544 18.112 90.8104 18.112C90.117 18.112 89.5037 17.968 88.9704 17.68C88.437 17.3813 88.0157 16.9493 87.7064 16.384C87.4077 15.808 87.2584 15.1253 87.2584 14.336V9.136H89.4984V14.016C89.4984 14.72 89.6744 15.264 90.0264 15.648C90.3784 16.0213 90.8584 16.208 91.4664 16.208C92.085 16.208 92.5704 16.0213 92.9224 15.648C93.2744 15.264 93.4504 14.72 93.4504 14.016V9.136H95.7064ZM100.157 10.512C100.445 10.0427 100.818 9.67467 101.277 9.408C101.746 9.14133 102.279 9.008 102.877 9.008V11.36H102.285C101.581 11.36 101.047 11.5253 100.685 11.856C100.333 12.1867 100.157 12.7627 100.157 13.584V18H97.9165V9.136H100.157V10.512ZM107.777 18.144C107.052 18.144 106.401 18.016 105.825 17.76C105.249 17.4933 104.791 17.136 104.449 16.688C104.119 16.24 103.937 15.744 103.905 15.2H106.161C106.204 15.5413 106.369 15.824 106.657 16.048C106.956 16.272 107.324 16.384 107.761 16.384C108.188 16.384 108.519 16.2987 108.753 16.128C108.999 15.9573 109.121 15.7387 109.121 15.472C109.121 15.184 108.972 14.9707 108.673 14.832C108.385 14.6827 107.921 14.5227 107.281 14.352C106.62 14.192 106.076 14.0267 105.649 13.856C105.233 13.6853 104.871 13.424 104.561 13.072C104.263 12.72 104.113 12.2453 104.113 11.648C104.113 11.1573 104.252 10.7093 104.529 10.304C104.817 9.89867 105.223 9.57867 105.745 9.344C106.279 9.10933 106.903 8.992 107.617 8.992C108.673 8.992 109.516 9.25867 110.145 9.792C110.775 10.3147 111.121 11.024 111.185 11.92H109.041C109.009 11.568 108.86 11.2907 108.593 11.088C108.337 10.8747 107.991 10.768 107.553 10.768C107.148 10.768 106.833 10.8427 106.609 10.992C106.396 11.1413 106.289 11.3493 106.289 11.616C106.289 11.9147 106.439 12.144 106.737 12.304C107.036 12.4533 107.5 12.608 108.129 12.768C108.769 12.928 109.297 13.0933 109.713 13.264C110.129 13.4347 110.487 13.7013 110.785 14.064C111.095 14.416 111.255 14.8853 111.265 15.472C111.265 15.984 111.121 16.4427 110.833 16.848C110.556 17.2533 110.151 17.5733 109.617 17.808C109.095 18.032 108.481 18.144 107.777 18.144ZM121.344 13.376C121.344 13.696 121.323 13.984 121.28 14.24H114.8C114.853 14.88 115.077 15.3813 115.472 15.744C115.867 16.1067 116.352 16.288 116.928 16.288C117.76 16.288 118.352 15.9307 118.704 15.216H121.12C120.864 16.0693 120.373 16.7733 119.648 17.328C118.923 17.872 118.032 18.144 116.976 18.144C116.123 18.144 115.355 17.9573 114.672 17.584C114 17.2 113.472 16.6613 113.088 15.968C112.715 15.2747 112.528 14.4747 112.528 13.568C112.528 12.6507 112.715 11.8453 113.088 11.152C113.461 10.4587 113.984 9.92533 114.656 9.552C115.328 9.17867 116.101 8.992 116.976 8.992C117.819 8.992 118.571 9.17333 119.232 9.536C119.904 9.89867 120.421 10.416 120.784 11.088C121.157 11.7493 121.344 12.512 121.344 13.376ZM119.024 12.736C119.013 12.16 118.805 11.7013 118.4 11.36C117.995 11.008 117.499 10.832 116.912 10.832C116.357 10.832 115.888 11.0027 115.504 11.344C115.131 11.6747 114.901 12.1387 114.816 12.736H119.024ZM125.219 10.512C125.507 10.0427 125.88 9.67467 126.339 9.408C126.808 9.14133 127.342 9.008 127.939 9.008V11.36H127.347C126.643 11.36 126.11 11.5253 125.747 11.856C125.395 12.1867 125.219 12.7627 125.219 13.584V18H122.979V9.136H125.219V10.512ZM137.928 9.136L132.44 22.192H130.056L131.976 17.776L128.424 9.136H130.936L133.224 15.328L135.544 9.136H137.928Z" fill="white"/>
</svg>
