<svg width="25" height="24" viewBox="0 0 25 24" fill="none" xmlns="http://www.w3.org/2000/svg">
<path d="M17.0659 18C17.5963 18 18.105 18.2107 18.4801 18.5858C18.8551 18.9609 19.0659 19.4696 19.0659 20C19.0659 20.5304 18.8551 21.0391 18.4801 21.4142C18.105 21.7893 17.5963 22 17.0659 22C16.5354 22 16.0267 21.7893 15.6516 21.4142C15.2766 21.0391 15.0659 20.5304 15.0659 20C15.0659 18.89 15.9559 18 17.0659 18ZM1.06586 2H4.33586L5.27586 4H20.0659C20.3311 4 20.5854 4.10536 20.773 4.29289C20.9605 4.48043 21.0659 4.73478 21.0659 5C21.0659 5.17 21.0159 5.34 20.9459 5.5L17.3659 11.97C17.0259 12.58 16.3659 13 15.6159 13H8.16586L7.26586 14.63L7.23586 14.75C7.23586 14.8163 7.2622 14.8799 7.30908 14.9268C7.35596 14.9737 7.41955 15 7.48586 15H19.0659V17H7.06586C6.53542 17 6.02672 16.7893 5.65164 16.4142C5.27657 16.0391 5.06586 15.5304 5.06586 15C5.06586 14.65 5.15586 14.32 5.30586 14.04L6.66586 11.59L3.06586 4H1.06586V2ZM7.06586 18C7.59629 18 8.105 18.2107 8.48007 18.5858C8.85514 18.9609 9.06586 19.4696 9.06586 20C9.06586 20.5304 8.85514 21.0391 8.48007 21.4142C8.105 21.7893 7.59629 22 7.06586 22C6.53542 22 6.02672 21.7893 5.65164 21.4142C5.27657 21.0391 5.06586 20.5304 5.06586 20C5.06586 18.89 5.95586 18 7.06586 18ZM16.0659 11L18.8459 6H6.20586L8.56586 11H16.0659Z" fill="black"/>
</svg>
