<svg width="41" height="40" viewBox="0 0 41 40" fill="none" xmlns="http://www.w3.org/2000/svg">
<path d="M10.4967 5C13.2719 4.9997 15.9563 5.98868 18.068 7.78939C20.1796 9.59011 21.5802 12.0846 22.0183 14.825C23.0226 13.822 24.2147 13.0268 25.5265 12.4849C26.8383 11.943 28.244 11.6649 29.6633 11.6667H37.1633V15.8333C37.1633 18.7065 36.022 21.462 33.9903 23.4937C31.9587 25.5253 29.2032 26.6667 26.33 26.6667H22.1633V35H18.83V21.6667H15.4967C12.4025 21.6667 9.43501 20.4375 7.24709 18.2496C5.05916 16.0617 3.83 13.0942 3.83 10V5H10.4967ZM33.83 15H29.6633C27.6742 15 25.7666 15.7902 24.36 17.1967C22.9535 18.6032 22.1633 20.5109 22.1633 22.5V23.3333H26.33C28.3191 23.3333 30.2268 22.5432 31.6333 21.1366C33.0398 19.7301 33.83 17.8225 33.83 15.8333V15ZM10.4967 8.33333H7.16333V10C7.16333 12.2101 8.04131 14.3298 9.60411 15.8926C11.1669 17.4554 13.2865 18.3333 15.4967 18.3333H18.83V16.6667C18.83 14.4565 17.952 12.3369 16.3892 10.7741C14.8264 9.21131 12.7068 8.33333 10.4967 8.33333Z" fill="#4CAF7A"/>
</svg>
