<svg width="12" height="12" viewBox="0 0 12 12" fill="none" xmlns="http://www.w3.org/2000/svg">
<path d="M8.24876 6.42559C8.83665 5.96306 9.26577 5.32878 9.47639 4.611C9.68702 3.89323 9.66869 3.12765 9.42395 2.42078C9.17921 1.71391 8.72024 1.1009 8.11088 0.667026C7.50152 0.233154 6.77208 0 6.02404 0C5.276 0 4.54656 0.233154 3.9372 0.667026C3.32784 1.1009 2.86887 1.71391 2.62413 2.42078C2.37939 3.12765 2.36106 3.89323 2.57169 4.611C2.78232 5.32878 3.21143 5.96306 3.79932 6.42559C2.79195 6.82919 1.91298 7.49858 1.25613 8.36243C0.599267 9.22627 0.189143 10.2522 0.069474 11.3308C0.0608117 11.4095 0.0677449 11.4892 0.0898774 11.5653C0.11201 11.6413 0.148909 11.7123 0.198466 11.7741C0.298553 11.8989 0.444128 11.9789 0.603166 11.9964C0.762204 12.0139 0.921678 11.9675 1.04651 11.8674C1.17133 11.7673 1.25129 11.6217 1.26878 11.4627C1.40046 10.2905 1.9594 9.20788 2.83881 8.42172C3.71822 7.63556 4.85645 7.20096 6.03603 7.20096C7.21562 7.20096 8.35385 7.63556 9.23326 8.42172C10.1127 9.20788 10.6716 10.2905 10.8033 11.4627C10.8196 11.61 10.8899 11.7461 11.0006 11.8447C11.1114 11.9432 11.2547 11.9973 11.4029 11.9964H11.4689C11.6261 11.9783 11.7698 11.8988 11.8686 11.7753C11.9675 11.6517 12.0135 11.4941 11.9966 11.3368C11.8764 10.2551 11.464 9.22657 10.8038 8.3614C10.1436 7.49623 9.26032 6.82705 8.24876 6.42559ZM6.02404 5.99984C5.54964 5.99984 5.08589 5.85916 4.69144 5.5956C4.29699 5.33204 3.98955 4.95742 3.80801 4.51913C3.62646 4.08084 3.57896 3.59856 3.67151 3.13327C3.76406 2.66799 3.99251 2.2406 4.32796 1.90514C4.66341 1.56969 5.09081 1.34124 5.55609 1.24869C6.02138 1.15614 6.50366 1.20364 6.94195 1.38519C7.38024 1.56673 7.75485 1.87417 8.01842 2.26862C8.28198 2.66307 8.42266 3.12682 8.42266 3.60122C8.42266 4.23737 8.16995 4.84747 7.72012 5.2973C7.27029 5.74713 6.66019 5.99984 6.02404 5.99984Z" fill="black"/>
</svg>
