<svg width="16" height="10" viewBox="0 0 16 10" fill="none" xmlns="http://www.w3.org/2000/svg">
<path fill-rule="evenodd" clip-rule="evenodd" d="M3 1.5H8.5C8.89782 1.5 9.27936 1.65804 9.56066 1.93934C9.84196 2.22064 10 2.60218 10 3V7C10 7.39782 9.84196 7.77936 9.56066 8.06066C9.27936 8.34196 8.89782 8.5 8.5 8.5H3C2.60218 8.5 2.22064 8.34196 1.93934 8.06066C1.65804 7.77936 1.5 7.39782 1.5 7V3C1.5 2.60218 1.65804 2.22064 1.93934 1.93934C2.22064 1.65804 2.60218 1.5 3 1.5ZM11.452 7.537C11.3262 8.22824 10.9619 8.85341 10.4224 9.30351C9.88292 9.75362 9.20258 10.0001 8.5 10H3C2.20435 10 1.44129 9.68393 0.87868 9.12132C0.31607 8.55871 0 7.79565 0 7L0 3C0 2.20435 0.31607 1.44129 0.87868 0.87868C1.44129 0.316071 2.20435 3.41977e-08 3 3.41977e-08H8.5C9.20258 -0.000106003 9.88292 0.246382 10.4224 0.696488C10.9619 1.14659 11.3262 1.77176 11.452 2.463L13.006 1.353C13.289 1.15066 13.6223 1.03022 13.9693 1.0049C14.3162 0.979591 14.6635 1.05039 14.9729 1.20952C15.2822 1.36865 15.5418 1.60995 15.723 1.90694C15.9042 2.20392 16 2.5451 16 2.893V7.107C16 7.4549 15.9042 7.79607 15.723 8.09306C15.5418 8.39005 15.2822 8.63135 14.9729 8.79048C14.6635 8.94961 14.3162 9.02041 13.9693 8.9951C13.6223 8.96978 13.289 8.84934 13.006 8.647L11.452 7.537ZM11.5 5.728L13.878 7.427C13.9368 7.46914 14.006 7.49425 14.0782 7.49955C14.1503 7.50486 14.2225 7.49016 14.2868 7.45708C14.3511 7.42399 14.405 7.3738 14.4426 7.31204C14.4803 7.25027 14.5001 7.17932 14.5 7.107V2.893C14.5001 2.82068 14.4803 2.74973 14.4426 2.68796C14.405 2.6262 14.3511 2.57601 14.2868 2.54292C14.2225 2.50984 14.1503 2.49514 14.0782 2.50045C14.006 2.50575 13.9368 2.53086 13.878 2.573L11.5 4.272V5.728Z" fill="#2F2F2F"/>
</svg>
